<svg viewBox="0 0 220 220" xmlns="http://www.w3.org/2000/svg" role="img" aria-label="Coffee machine">
  <ellipse cx="110" cy="196" rx="66" ry="10" fill="#000" opacity=".07"/>
  <!-- base -->
  <rect x="48" y="150" width="124" height="34" rx="8" fill="#2b313c"/>
  <rect x="48" y="150" width="124" height="10" rx="5" fill="#3a4150"/>
  <!-- body -->
  <rect x="58" y="40" width="74" height="118" rx="12" fill="#cfd3da"/>
  <rect x="58" y="40" width="74" height="118" rx="12" fill="url(#g)" opacity=".0"/>
  <rect x="66" y="52" width="58" height="40" rx="7" fill="#11151d"/>
  <circle cx="80" cy="72" r="6" fill="#E8A93C"/><circle cx="100" cy="72" r="6" fill="#5a6473"/><circle cx="118" cy="72" r="4" fill="#3a4150"/>
  <!-- group head -->
  <rect x="92" y="100" width="22" height="22" rx="4" fill="#9aa0ab"/>
  <rect x="98" y="120" width="10" height="14" rx="3" fill="#7b818c"/>
  <!-- right tower (beans) -->
  <rect x="138" y="48" width="34" height="60" rx="9" fill="#3a4150"/>
  <rect x="143" y="54" width="24" height="30" rx="6" fill="#5b3d24"/>
  <!-- cup + coffee -->
  <rect x="86" y="138" width="34" height="20" rx="4" fill="#fff" stroke="#d3d7dd" stroke-width="2"/>
  <rect x="90" y="142" width="26" height="8" rx="3" fill="#6f4a2d"/>
  <path d="M120 142h6a6 6 0 0 1 0 12h-6" fill="none" stroke="#d3d7dd" stroke-width="3"/>
</svg>
